<svg version="1.0" xmlns="http://www.w3.org/2000/svg" width="1067.2650217181465" height="1067.1155468749998" viewBox="335.03861003861005 350.7002734375 1067.2650217181465 1067.1155468749998" preserveAspectRatio="xMidYMid meet">

<g transform="translate(0.000000,1129.000000) scale(0.100000,-0.100000)" fill="#000000" stroke="none">
<path d="M5430 7011 c-82 -17 -167 -89 -215 -181 -13 -25 -20 -28 -102 -35
-48 -4 -118 -9 -154 -10 -37 -2 -75 -7 -85 -13 -11 -6 -46 -20 -79 -31 -61
-21 -127 -80 -146 -128 -10 -26 -12 -106 -3 -151 7 -34 62 -82 94 -82 9 0 23
-20 35 -50 29 -76 63 -104 128 -105 55 -1 125 12 142 26 19 18 25 8 10 -21 -9
-17 -15 -55 -15 -93 0 -71 19 -101 61 -95 28 4 44 34 58 108 l11 55 57 2 c59
2 106 16 135 41 16 13 22 12 58 -13 22 -15 43 -25 47 -22 3 4 12 2 20 -5 8 -6
46 -12 85 -12 l70 -1 43 48 c25 27 52 47 64 47 11 0 45 -24 75 -52 68 -65 93
-133 101 -268 4 -75 2 -98 -10 -117 -35 -53 12 -125 68 -104 16 6 27 18 27 29
0 9 7 27 15 39 34 48 15 317 -27 398 -23 43 -73 98 -124 136 -77 56 -91 61
-294 100 -89 17 -155 20 -430 23 -369 3 -390 7 -390 61 0 90 105 130 369 140
152 6 166 8 182 28 10 12 18 37 19 56 0 39 47 104 91 126 36 19 103 19 119 0
7 -8 22 -40 35 -72 36 -89 103 -109 142 -43 38 65 129 83 187 36 27 -21 29
-28 31 -101 l2 -79 33 -14 c39 -16 76 -9 89 16 10 20 -10 162 -32 213 -20 46
-43 65 -112 89 -93 32 -161 26 -217 -18 -14 -12 -21 -8 -56 30 -25 27 -58 50
-89 61 -51 18 -67 19 -123 8z m-463 -661 c8 0 11 -4 8 -10 -10 -16 -61 -12
-76 7 -13 15 -11 16 20 10 18 -4 40 -7 48 -7z m318 1 c37 -8 22 -19 -38 -27
-39 -6 -46 -4 -56 15 -11 20 -9 21 26 20 21 -1 52 -4 68 -8z m278 -17 c41 -7
48 -19 16 -27 -21 -6 -76 9 -93 24 -12 11 22 12 77 3z"></path>
<path d="M5468 6743 c-20 -10 -28 -22 -28 -42 0 -40 30 -63 76 -59 31 2 39 8
44 28 9 35 -7 77 -33 84 -27 7 -26 7 -59 -11z"></path>
<path d="M5742 6716 c-31 -15 -38 -48 -17 -80 14 -21 25 -26 56 -26 33 0 41 4
49 26 13 32 3 72 -20 84 -22 12 -38 11 -68 -4z"></path>
<path d="M6086 6575 c-6 -33 -3 -39 47 -87 29 -29 79 -75 110 -103 32 -27 57
-55 57 -61 0 -6 7 -17 15 -24 8 -7 15 -19 15 -28 0 -8 6 -23 14 -31 7 -9 25
-43 39 -76 107 -249 99 -223 112 -400 3 -33 5 -77 4 -98 0 -54 15 -69 60 -61
20 4 39 9 43 13 17 15 8 304 -11 340 -5 9 -14 40 -21 69 -6 28 -16 52 -21 52
-5 0 -9 7 -9 15 0 27 -95 218 -133 268 -21 26 -37 51 -37 56 0 16 -164 163
-197 177 -18 8 -43 14 -57 14 -19 0 -25 -6 -30 -35z"></path>
<path d="M5282 6078 c-19 -19 -15 -66 7 -78 31 -16 66 -12 87 11 17 19 17 23
3 47 -11 20 -24 28 -49 30 -19 2 -41 -3 -48 -10z"></path>
<path d="M5461 6061 c-23 -43 0 -81 48 -81 40 0 67 33 55 68 -8 23 -16 27 -51
30 -33 2 -44 -1 -52 -17z"></path>
<path d="M4757 6035 c-24 -12 -37 -13 -74 -3 -39 9 -50 9 -80 -7 -49 -27 -73
-72 -73 -136 1 -30 7 -65 14 -78 9 -17 12 -49 8 -111 -3 -67 -1 -93 12 -118 9
-17 16 -40 16 -50 0 -35 79 -112 146 -143 35 -15 75 -31 89 -35 29 -7 29 -9
15 -138 -13 -125 11 -226 82 -344 68 -113 236 -258 315 -271 39 -7 45 -14 62
-81 7 -25 16 -61 21 -80 5 -20 26 -51 48 -71 l39 -37 82 4 c54 2 91 8 107 19
72 47 107 174 64 234 -12 17 -30 36 -41 42 -18 9 -107 27 -249 49 -30 5 -63
13 -75 18 -11 5 -34 16 -52 23 -36 16 -119 85 -176 145 -66 71 -106 164 -113
264 -7 85 12 223 37 272 26 51 36 132 19 153 -13 16 -57 20 -76 7 -7 -4 -18
-27 -25 -52 -15 -55 -24 -66 -41 -52 -8 6 -38 19 -68 29 -68 22 -106 73 -121
162 -10 54 -9 62 10 88 37 51 36 75 -3 111 -36 32 -45 55 -26 67 5 3 17 -9 26
-28 15 -32 49 -57 76 -57 7 0 22 9 34 21 l23 21 20 -43 c12 -23 21 -49 21 -56
0 -8 16 -21 35 -29 19 -8 35 -18 35 -22 0 -4 18 -26 40 -50 22 -24 40 -47 40
-53 0 -31 149 -158 193 -164 12 -2 47 -9 77 -15 64 -15 258 -19 345 -8 157 19
306 76 331 126 6 12 18 30 27 40 22 24 21 41 -2 71 -15 19 -23 22 -49 16 -18
-4 -41 -19 -53 -36 -18 -26 -60 -51 -123 -73 -112 -40 -429 -47 -511 -12 -60
26 -97 66 -61 66 8 0 36 9 62 20 l48 21 93 -31 c100 -32 141 -36 194 -19 44
15 69 38 98 92 30 55 24 99 -22 152 -29 34 -38 38 -98 44 -66 7 -119 -2 -119
-20 0 -5 -9 -9 -20 -9 -29 0 -34 -23 -15 -60 17 -33 17 -33 77 -26 62 6 98 -4
98 -29 0 -25 -38 -37 -93 -30 -52 8 -58 9 -114 39 -40 21 -57 20 -129 -4 -32
-11 -84 -23 -116 -26 -55 -6 -57 -6 -71 23 -9 16 -12 35 -8 41 12 19 71 33 92
22 32 -18 74 -11 99 15 22 23 22 27 9 52 -37 69 -213 75 -268 9 -21 -25 -29
-19 -36 24 -9 55 -73 120 -117 120 -18 0 -46 -7 -61 -15z m736 -1496 c64 -13
71 -28 37 -72 -17 -22 -26 -25 -53 -20 -42 8 -61 25 -74 68 -10 33 -10 35 11
35 13 0 48 -5 79 -11z"></path>
<path d="M6538 5573 c-3 -43 5 -77 28 -110 33 -49 29 -135 -9 -187 -22 -30
-89 -39 -144 -18 -45 16 -49 21 -79 92 -18 41 -37 81 -44 88 -15 17 -85 15
-104 -3 -13 -13 -13 -20 -1 -53 24 -67 45 -111 55 -117 5 -3 10 -15 10 -26 0
-24 57 -79 82 -79 9 0 19 -4 22 -9 8 -12 57 -21 131 -25 67 -4 126 19 146 55
9 17 13 19 20 8 5 -8 9 -24 9 -36 0 -12 19 -46 43 -75 23 -29 54 -69 69 -90
15 -20 34 -42 41 -50 7 -7 21 -32 30 -55 16 -41 16 -43 -6 -68 -34 -39 -95
-50 -151 -25 -25 10 -61 22 -81 26 -19 3 -38 10 -41 15 -9 16 -60 10 -76 -8
-8 -10 -19 -30 -25 -45 -12 -27 -112 -90 -175 -109 -126 -39 -143 -40 -343
-38 -110 2 -206 0 -212 -4 -15 -10 -17 -47 -3 -47 6 0 15 -11 20 -25 11 -30
26 -33 160 -39 58 -3 106 -5 108 -5 1 -1 2 -15 2 -32 0 -51 42 -112 90 -131
67 -27 178 -8 222 39 21 23 51 144 41 169 -3 8 13 21 42 35 26 12 69 44 96 72
l48 49 92 -32 c50 -17 98 -28 108 -25 9 4 31 9 50 11 40 5 112 53 140 93 48
67 18 192 -72 295 -20 23 -61 74 -92 114 -44 56 -62 72 -82 72 -22 0 -24 3
-18 23 32 105 31 152 -5 230 -35 77 -47 87 -99 93 -34 4 -41 2 -43 -13z m-282
-1077 c-11 -35 -28 -46 -76 -46 -30 0 -50 17 -50 42 0 12 11 19 38 23 20 4 44
8 52 10 45 9 48 7 36 -29z"></path>
</g>
</svg>