<?xml version="1.0" encoding="UTF-8"?>
<svg xmlns="http://www.w3.org/2000/svg" xmlns:xlink="http://www.w3.org/1999/xlink" width="16px" height="16px" viewBox="0 0 16 16" version="1.1">
<g id="surface1">
<path style=" stroke:none;fill-rule:nonzero;fill:rgb(0%,0%,0%);fill-opacity:1;" d="M 7.386719 6.074219 C 7.289062 6.109375 7.238281 6.15625 7.167969 6.261719 C 7.113281 6.34375 7.097656 6.351562 7.023438 6.363281 C 6.980469 6.371094 6.890625 6.375 6.832031 6.375 C 6.695312 6.378906 6.5 6.453125 6.421875 6.53125 C 6.363281 6.589844 6.332031 6.671875 6.339844 6.75 C 6.339844 6.773438 6.34375 6.808594 6.347656 6.824219 C 6.347656 6.867188 6.429688 6.949219 6.472656 6.949219 C 6.492188 6.949219 6.507812 6.972656 6.523438 7.023438 C 6.539062 7.0625 6.566406 7.113281 6.589844 7.132812 C 6.625 7.167969 6.644531 7.171875 6.75 7.164062 C 6.816406 7.160156 6.882812 7.152344 6.902344 7.140625 C 6.929688 7.128906 6.929688 7.132812 6.90625 7.179688 C 6.875 7.246094 6.882812 7.390625 6.925781 7.421875 C 6.941406 7.433594 6.960938 7.445312 6.972656 7.445312 C 6.996094 7.445312 7.035156 7.363281 7.046875 7.28125 C 7.058594 7.210938 7.0625 7.207031 7.121094 7.207031 C 7.207031 7.207031 7.324219 7.167969 7.335938 7.136719 C 7.34375 7.121094 7.355469 7.125 7.390625 7.148438 C 7.460938 7.191406 7.554688 7.222656 7.632812 7.222656 C 7.6875 7.222656 7.710938 7.210938 7.769531 7.152344 C 7.816406 7.101562 7.851562 7.082031 7.871094 7.085938 C 7.921875 7.105469 8.019531 7.214844 8.054688 7.289062 C 8.09375 7.375 8.117188 7.671875 8.085938 7.691406 C 8.054688 7.714844 8.0625 7.808594 8.105469 7.839844 C 8.269531 7.957031 8.324219 7.371094 8.167969 7.144531 C 8 6.898438 7.800781 6.839844 7.082031 6.828125 C 6.558594 6.816406 6.507812 6.808594 6.507812 6.730469 C 6.507812 6.609375 6.65625 6.554688 7.011719 6.535156 C 7.257812 6.527344 7.285156 6.511719 7.289062 6.414062 C 7.289062 6.347656 7.386719 6.234375 7.457031 6.222656 C 7.539062 6.207031 7.570312 6.226562 7.621094 6.339844 C 7.683594 6.476562 7.734375 6.484375 7.835938 6.378906 C 7.898438 6.3125 7.914062 6.308594 7.972656 6.316406 C 8.078125 6.332031 8.109375 6.375 8.113281 6.5 C 8.117188 6.609375 8.117188 6.609375 8.179688 6.625 C 8.296875 6.65625 8.316406 6.59375 8.257812 6.363281 C 8.230469 6.253906 8.179688 6.203125 8.0625 6.167969 C 7.933594 6.128906 7.894531 6.132812 7.824219 6.175781 L 7.761719 6.214844 L 7.726562 6.167969 C 7.6875 6.113281 7.558594 6.046875 7.496094 6.046875 C 7.472656 6.050781 7.421875 6.0625 7.386719 6.074219 Z M 6.773438 7.003906 C 6.792969 7.019531 6.789062 7.023438 6.75 7.023438 C 6.726562 7.023438 6.699219 7.011719 6.691406 7.003906 C 6.679688 6.980469 6.738281 6.980469 6.773438 7.003906 Z M 7.230469 7 C 7.25 7.015625 7.242188 7.023438 7.191406 7.03125 C 7.128906 7.042969 7.09375 7.03125 7.09375 7 C 7.09375 6.980469 7.199219 6.980469 7.230469 7 Z M 7.652344 7.042969 C 7.660156 7.050781 7.648438 7.058594 7.625 7.058594 C 7.558594 7.058594 7.5 7.039062 7.5 7.019531 C 7.5 7 7.625 7.019531 7.652344 7.042969 Z M 7.652344 7.042969 "/>
<path style=" stroke:none;fill-rule:nonzero;fill:rgb(0%,0%,0%);fill-opacity:1;" d="M 7.464844 6.449219 C 7.425781 6.480469 7.421875 6.492188 7.441406 6.53125 C 7.464844 6.589844 7.539062 6.613281 7.578125 6.582031 C 7.617188 6.550781 7.613281 6.480469 7.578125 6.445312 C 7.542969 6.40625 7.519531 6.40625 7.464844 6.449219 Z M 7.464844 6.449219 "/>
<path style=" stroke:none;fill-rule:nonzero;fill:rgb(0%,0%,0%);fill-opacity:1;" d="M 7.847656 6.480469 C 7.792969 6.511719 7.789062 6.535156 7.828125 6.59375 C 7.867188 6.65625 7.957031 6.652344 7.972656 6.589844 C 7.996094 6.496094 7.929688 6.4375 7.847656 6.480469 Z M 7.847656 6.480469 "/>
<path style=" stroke:none;fill-rule:nonzero;fill:rgb(0%,0%,0%);fill-opacity:1;" d="M 8.328125 6.628906 C 8.289062 6.671875 8.324219 6.738281 8.472656 6.890625 C 8.640625 7.0625 8.664062 7.101562 8.800781 7.449219 C 8.859375 7.589844 8.867188 7.632812 8.875 7.816406 C 8.882812 7.929688 8.890625 8.03125 8.894531 8.035156 C 8.910156 8.0625 9 8.054688 9.023438 8.023438 C 9.050781 7.992188 9.039062 7.585938 9.011719 7.550781 C 9 7.535156 8.988281 7.5 8.980469 7.464844 C 8.972656 7.429688 8.960938 7.386719 8.953125 7.371094 C 8.945312 7.355469 8.910156 7.28125 8.875 7.203125 C 8.792969 7.015625 8.707031 6.886719 8.585938 6.765625 C 8.464844 6.652344 8.363281 6.59375 8.328125 6.628906 Z M 8.328125 6.628906 "/>
<path style=" stroke:none;fill-rule:nonzero;fill:rgb(0%,0%,0%);fill-opacity:1;" d="M 7.207031 7.421875 C 7.191406 7.46875 7.230469 7.519531 7.277344 7.519531 C 7.328125 7.519531 7.363281 7.46875 7.351562 7.421875 C 7.34375 7.378906 7.328125 7.371094 7.277344 7.371094 C 7.226562 7.371094 7.214844 7.378906 7.207031 7.421875 Z M 7.207031 7.421875 "/>
<path style=" stroke:none;fill-rule:nonzero;fill:rgb(0%,0%,0%);fill-opacity:1;" d="M 7.472656 7.402344 C 7.4375 7.441406 7.445312 7.484375 7.5 7.511719 C 7.582031 7.554688 7.652344 7.472656 7.589844 7.40625 C 7.546875 7.363281 7.511719 7.363281 7.472656 7.402344 Z M 7.472656 7.402344 "/>
<path style=" stroke:none;fill-rule:nonzero;fill:rgb(0%,0%,0%);fill-opacity:1;" d="M 6.550781 7.421875 C 6.53125 7.425781 6.507812 7.4375 6.496094 7.445312 C 6.484375 7.457031 6.441406 7.460938 6.402344 7.453125 C 6.351562 7.445312 6.3125 7.449219 6.285156 7.464844 C 6.191406 7.515625 6.160156 7.65625 6.214844 7.765625 C 6.230469 7.792969 6.234375 7.824219 6.230469 7.832031 C 6.210938 7.867188 6.222656 8.027344 6.25 8.117188 C 6.289062 8.238281 6.375 8.328125 6.511719 8.382812 L 6.617188 8.425781 L 6.601562 8.574219 C 6.589844 8.761719 6.617188 8.90625 6.695312 9.054688 C 6.789062 9.234375 7.011719 9.4375 7.132812 9.464844 C 7.195312 9.476562 7.203125 9.492188 7.242188 9.640625 C 7.261719 9.703125 7.292969 9.773438 7.320312 9.800781 C 7.359375 9.847656 7.378906 9.851562 7.480469 9.851562 C 7.613281 9.851562 7.652344 9.832031 7.710938 9.734375 C 7.761719 9.652344 7.761719 9.539062 7.710938 9.476562 C 7.667969 9.433594 7.625 9.417969 7.402344 9.375 C 7.207031 9.339844 7.125 9.300781 7.007812 9.195312 C 6.949219 9.140625 6.878906 9.0625 6.855469 9.027344 C 6.8125 8.957031 6.757812 8.816406 6.757812 8.769531 C 6.757812 8.753906 6.757812 8.695312 6.753906 8.640625 C 6.753906 8.585938 6.769531 8.492188 6.785156 8.4375 C 6.859375 8.175781 6.863281 8.15625 6.84375 8.128906 C 6.832031 8.117188 6.800781 8.105469 6.769531 8.105469 C 6.726562 8.105469 6.71875 8.117188 6.699219 8.1875 C 6.675781 8.269531 6.660156 8.289062 6.640625 8.253906 C 6.636719 8.246094 6.601562 8.234375 6.566406 8.226562 C 6.484375 8.210938 6.460938 8.191406 6.421875 8.109375 C 6.371094 8.007812 6.359375 7.914062 6.390625 7.878906 C 6.40625 7.863281 6.421875 7.828125 6.429688 7.796875 C 6.4375 7.753906 6.429688 7.738281 6.394531 7.707031 C 6.367188 7.6875 6.347656 7.65625 6.347656 7.640625 C 6.347656 7.597656 6.378906 7.601562 6.386719 7.644531 C 6.390625 7.664062 6.417969 7.695312 6.441406 7.710938 C 6.484375 7.742188 6.492188 7.742188 6.535156 7.714844 C 6.578125 7.683594 6.578125 7.683594 6.613281 7.769531 C 6.632812 7.8125 6.664062 7.855469 6.683594 7.863281 C 6.699219 7.867188 6.742188 7.90625 6.773438 7.953125 C 6.960938 8.207031 7.027344 8.257812 7.210938 8.289062 C 7.554688 8.351562 8.058594 8.253906 8.128906 8.113281 C 8.140625 8.089844 8.160156 8.0625 8.171875 8.046875 C 8.191406 8.023438 8.1875 8.007812 8.164062 7.96875 C 8.128906 7.914062 8.078125 7.917969 8.023438 7.988281 C 7.964844 8.054688 7.90625 8.082031 7.757812 8.117188 C 7.566406 8.160156 7.214844 8.148438 7.125 8.09375 C 7.09375 8.074219 7.066406 8.050781 7.0625 8.042969 C 7.058594 8.03125 7.097656 8.007812 7.140625 7.992188 C 7.226562 7.960938 7.230469 7.960938 7.355469 8.003906 C 7.425781 8.03125 7.503906 8.050781 7.53125 8.050781 C 7.652344 8.050781 7.765625 7.933594 7.765625 7.804688 C 7.765625 7.65625 7.578125 7.566406 7.425781 7.640625 C 7.355469 7.675781 7.34375 7.710938 7.382812 7.765625 C 7.402344 7.792969 7.421875 7.796875 7.480469 7.785156 C 7.523438 7.78125 7.570312 7.78125 7.589844 7.796875 C 7.625 7.8125 7.625 7.816406 7.597656 7.847656 C 7.5625 7.890625 7.453125 7.878906 7.363281 7.828125 C 7.289062 7.785156 7.242188 7.785156 7.132812 7.824219 C 6.980469 7.878906 6.882812 7.863281 6.878906 7.78125 C 6.878906 7.75 6.984375 7.71875 7.019531 7.738281 C 7.074219 7.769531 7.117188 7.757812 7.152344 7.710938 C 7.175781 7.671875 7.179688 7.65625 7.160156 7.636719 C 7.089844 7.546875 6.949219 7.53125 6.832031 7.601562 L 6.757812 7.648438 L 6.75 7.597656 C 6.722656 7.488281 6.628906 7.40625 6.550781 7.421875 Z M 7.539062 9.570312 C 7.597656 9.582031 7.601562 9.605469 7.558594 9.664062 C 7.539062 9.695312 7.523438 9.703125 7.484375 9.695312 C 7.425781 9.679688 7.402344 9.65625 7.386719 9.589844 C 7.375 9.535156 7.375 9.535156 7.539062 9.570312 Z M 7.539062 9.570312 "/>
<path style=" stroke:none;fill-rule:nonzero;fill:rgb(0%,0%,0%);fill-opacity:1;" d="M 8.945312 8.082031 C 8.921875 8.109375 8.9375 8.203125 8.972656 8.253906 C 9.003906 8.296875 9.011719 8.320312 9 8.390625 C 8.996094 8.4375 8.980469 8.492188 8.972656 8.511719 C 8.945312 8.5625 8.84375 8.574219 8.765625 8.542969 C 8.707031 8.519531 8.691406 8.5 8.652344 8.398438 C 8.601562 8.277344 8.574219 8.257812 8.480469 8.28125 C 8.425781 8.292969 8.429688 8.328125 8.503906 8.488281 C 8.578125 8.652344 8.613281 8.6875 8.730469 8.710938 C 8.898438 8.75 9 8.734375 9.0625 8.652344 C 9.089844 8.617188 9.089844 8.617188 9.101562 8.679688 C 9.113281 8.734375 9.152344 8.792969 9.296875 8.980469 C 9.324219 9.015625 9.347656 9.066406 9.355469 9.097656 C 9.367188 9.148438 9.359375 9.164062 9.324219 9.191406 C 9.269531 9.238281 9.210938 9.238281 9.070312 9.183594 C 8.914062 9.121094 8.890625 9.125 8.847656 9.199219 C 8.800781 9.277344 8.703125 9.34375 8.546875 9.394531 C 8.449219 9.425781 8.386719 9.433594 8.167969 9.433594 C 8.023438 9.433594 7.898438 9.425781 7.886719 9.417969 C 7.867188 9.40625 7.820312 9.445312 7.820312 9.476562 C 7.820312 9.515625 7.90625 9.597656 7.949219 9.59375 C 7.96875 9.59375 8.039062 9.59375 8.109375 9.59375 C 8.226562 9.59375 8.226562 9.59375 8.226562 9.644531 C 8.226562 9.714844 8.289062 9.8125 8.34375 9.835938 C 8.402344 9.859375 8.503906 9.855469 8.578125 9.828125 C 8.652344 9.800781 8.703125 9.714844 8.710938 9.597656 C 8.714844 9.527344 8.722656 9.515625 8.777344 9.484375 C 8.8125 9.46875 8.867188 9.421875 8.902344 9.386719 L 8.964844 9.320312 L 9.089844 9.363281 C 9.160156 9.386719 9.222656 9.40625 9.226562 9.398438 C 9.230469 9.394531 9.261719 9.386719 9.292969 9.382812 C 9.324219 9.378906 9.375 9.359375 9.40625 9.339844 C 9.574219 9.230469 9.570312 9.035156 9.386719 8.824219 C 9.359375 8.789062 9.308594 8.71875 9.273438 8.671875 C 9.242188 8.625 9.195312 8.578125 9.171875 8.570312 C 9.140625 8.5625 9.132812 8.554688 9.140625 8.53125 C 9.148438 8.515625 9.15625 8.460938 9.160156 8.40625 C 9.171875 8.304688 9.132812 8.167969 9.078125 8.121094 C 9.046875 8.089844 8.964844 8.066406 8.945312 8.082031 Z M 8.554688 9.621094 C 8.539062 9.671875 8.511719 9.6875 8.449219 9.683594 C 8.410156 9.679688 8.394531 9.667969 8.390625 9.636719 C 8.382812 9.59375 8.402344 9.585938 8.507812 9.582031 C 8.558594 9.582031 8.5625 9.585938 8.554688 9.621094 Z M 8.554688 9.621094 "/>
</g>
</svg>
