<?xml version="1.0" standalone="no"?>
<!DOCTYPE svg PUBLIC "-//W3C//DTD SVG 20010904//EN"
 "http://www.w3.org/TR/2001/REC-SVG-20010904/DTD/svg10.dtd">
<svg version="1.0" xmlns="http://www.w3.org/2000/svg"
 width="902.000000pt" height="870.000000pt" viewBox="330 325 220 220"
 preserveAspectRatio="xMidYMid meet">

<g transform="translate(0.000000,870.000000) scale(0.100000,-0.100000)"
fill="#000000" stroke="none">
<path d="M4166 5395 c-55 -19 -84 -43 -124 -101 -30 -44 -39 -50 -80 -56 -26
-3 -75 -7 -108 -7 -77 -1 -187 -41 -232 -84 -34 -32 -51 -76 -47 -118 1 -13 3
-32 4 -42 1 -23 48 -67 71 -67 11 0 21 -14 30 -40 7 -21 23 -49 36 -61 20 -19
31 -21 91 -17 37 3 76 8 85 13 16 6 17 5 4 -20 -19 -37 -14 -115 10 -132 10
-7 21 -13 26 -13 14 0 36 44 43 88 6 40 8 42 42 42 47 0 114 20 120 37 4 9 11
8 31 -5 39 -25 92 -42 136 -42 32 0 45 7 79 40 25 26 46 38 56 35 28 -10 85
-70 104 -110 22 -46 35 -209 18 -219 -19 -12 -13 -64 11 -80 93 -65 123 254
35 378 -95 134 -207 166 -612 172 -295 5 -325 10 -325 53 0 65 84 96 284 105
139 6 155 13 156 67 0 35 57 97 95 104 48 8 65 -3 93 -63 36 -75 64 -80 121
-23 36 36 44 39 78 34 58 -8 76 -32 78 -100 2 -58 2 -58 38 -67 67 -17 78 17
44 143 -16 59 -44 86 -109 105 -73 21 -96 20 -136 -4 l-34 -21 -20 26 c-22 29
-96 65 -130 65 -13 -1 -41 -7 -62 -15z m-346 -505 c12 -8 9 -10 -12 -10 -15 0
-30 5 -33 10 -8 13 25 13 45 0z m259 1 c11 -7 5 -11 -22 -16 -36 -7 -57 -1
-57 16 0 12 60 12 79 0z m236 -22 c5 -5 -1 -9 -15 -9 -36 0 -70 11 -70 22 0
10 70 0 85 -13z"/>
<path d="M4210 5191 c-21 -17 -23 -22 -12 -45 13 -30 55 -44 77 -26 20 16 19
54 -1 74 -20 21 -33 20 -64 -3z"/>
<path d="M4427 5174 c-31 -17 -34 -30 -11 -62 22 -32 72 -30 80 3 13 52 -23
83 -69 59z"/>
<path d="M4697 5093 c-23 -23 -2 -58 82 -142 94 -93 107 -115 185 -303 32 -77
37 -101 42 -200 3 -62 8 -116 10 -120 9 -14 61 -9 74 7 15 18 8 238 -8 258 -5
7 -13 28 -17 47 -4 19 -11 41 -15 50 -5 8 -24 50 -44 92 -46 101 -95 171 -164
237 -67 63 -126 94 -145 74z"/>
<path d="M4064 4663 c-7 -26 14 -53 41 -53 27 0 48 27 41 53 -5 23 -12 27 -41
27 -29 0 -36 -4 -41 -27z"/>
<path d="M4215 4674 c-21 -22 -16 -46 14 -61 47 -23 86 22 51 57 -24 24 -43
25 -65 4z"/>
<path d="M3695 4662 c-11 -2 -25 -8 -31 -13 -7 -5 -31 -7 -53 -3 -28 4 -51 2
-67 -7 -51 -27 -69 -105 -39 -163 8 -15 12 -32 9 -37 -11 -19 -5 -106 11 -155
21 -65 71 -114 148 -144 l58 -23 -7 -81 c-8 -103 7 -182 52 -261 54 -98 178
-210 247 -224 35 -7 39 -14 62 -96 10 -33 29 -72 43 -87 23 -25 33 -28 92 -28
74 0 97 11 129 64 29 46 28 107 -1 140 -23 25 -47 33 -173 56 -110 20 -157 41
-222 98 -34 30 -73 71 -86 91 -24 38 -55 115 -55 141 -1 8 -1 40 -2 70 0 30 7
80 16 110 42 142 44 153 33 167 -6 7 -24 13 -40 13 -26 0 -30 -5 -41 -45 -12
-44 -21 -54 -32 -36 -3 5 -23 12 -43 16 -46 8 -59 19 -82 64 -28 55 -34 106
-16 124 8 9 18 29 21 45 5 23 1 33 -20 49 -14 12 -26 28 -26 37 0 22 17 20 23
-3 2 -10 16 -27 31 -36 24 -16 28 -16 51 -1 24 16 25 16 45 -30 12 -25 29 -48
39 -51 9 -2 33 -25 52 -50 104 -137 142 -165 245 -183 194 -34 480 19 519 97
6 12 17 28 24 36 10 13 9 20 -5 42 -19 30 -47 27 -79 -10 -32 -36 -65 -51
-150 -70 -108 -24 -306 -18 -356 11 -18 11 -34 24 -36 29 -2 6 19 18 45 27 47
17 49 17 121 -7 40 -14 84 -25 98 -25 68 0 133 65 133 134 0 81 -105 129 -192
89 -40 -19 -47 -37 -25 -68 11 -15 22 -17 56 -11 24 4 50 2 62 -5 19 -10 20
-12 4 -29 -20 -22 -82 -17 -133 12 -40 22 -68 23 -129 2 -87 -30 -142 -21
-143 23 0 17 59 34 80 23 30 -16 54 -11 73 16 15 20 16 28 6 40 -40 49 -120
57 -185 19 l-42 -25 -6 26 c-15 60 -68 105 -111 96z m558 -1168 c31 -6 34 -20
11 -52 -12 -17 -21 -21 -42 -16 -34 8 -48 22 -56 57 -7 30 -6 30 87 11z"/>
<path d="M5046 4303 c-13 -14 -5 -65 15 -93 18 -24 21 -37 16 -75 -4 -25 -11
-54 -17 -65 -14 -27 -72 -35 -117 -17 -32 12 -41 24 -64 78 -28 67 -44 77 -95
65 -32 -8 -30 -26 12 -114 43 -89 62 -107 127 -121 96 -22 154 -12 188 32 16
19 16 19 23 -14 5 -31 27 -63 110 -165 15 -18 29 -46 33 -64 5 -27 2 -36 -18
-51 -32 -25 -64 -24 -143 6 -88 33 -102 32 -127 -10 -25 -42 -81 -77 -169
-105 -54 -18 -90 -21 -213 -21 -81 0 -152 3 -158 7 -12 7 -39 -14 -39 -31 0
-22 50 -66 73 -65 12 1 52 2 90 1 66 -1 67 -1 67 -28 0 -38 34 -91 66 -103 34
-13 91 -11 133 4 42 15 69 62 73 125 3 38 7 45 39 61 19 10 51 35 70 54 l35
36 71 -24 c39 -13 74 -22 77 -19 3 3 19 7 37 9 17 2 46 13 64 24 95 59 92 165
-10 280 -16 19 -46 57 -65 83 -18 26 -44 50 -57 54 -17 4 -22 10 -18 22 4 9 9
39 12 67 6 56 -16 131 -46 157 -19 17 -65 29 -75 20z m-222 -836 c-9 -29 -23
-38 -59 -35 -22 2 -31 9 -33 25 -3 23 8 28 66 30 29 1 32 -1 26 -20z"/>
</g>
</svg>
